<svg width="9" height="14" viewBox="0 0 9 14" fill="none" xmlns="http://www.w3.org/2000/svg">
<path d="M7.13562 12.628H1.86438C1.69971 12.628 1.54178 12.7003 1.42534 12.8289C1.3089 12.9576 1.24349 13.1321 1.24349 13.314C1.24349 13.4959 1.3089 13.6704 1.42534 13.7991C1.54178 13.9277 1.69971 14 1.86438 14H7.13562C7.21716 14 7.2979 13.9823 7.37323 13.9478C7.44856 13.9133 7.517 13.8628 7.57466 13.7991C7.63231 13.7354 7.67805 13.6598 7.70925 13.5765C7.74045 13.4933 7.75651 13.4041 7.75651 13.314C7.75651 13.2239 7.74045 13.1347 7.70925 13.0515C7.67805 12.9683 7.63231 12.8926 7.57466 12.8289C7.517 12.7652 7.44856 12.7147 7.37323 12.6802C7.2979 12.6457 7.21716 12.628 7.13562 12.628Z" fill="#FD4D00"/>
<path d="M8.8209 6.566C8.76504 6.50031 8.69779 6.4477 8.62315 6.41131C8.54851 6.37492 8.468 6.3555 8.38643 6.35419C8.30485 6.35288 8.22387 6.36972 8.14831 6.40371C8.07275 6.43769 8.00414 6.48812 7.94658 6.552L5.12089 9.604V0.686C5.12089 0.504062 5.05548 0.329575 4.93904 0.200925C4.8226 0.0722748 4.66467 0 4.5 0C4.33533 0 4.1774 0.0722748 4.06096 0.200925C3.94452 0.329575 3.87911 0.504062 3.87911 0.686V9.604L1.05342 6.552C0.995857 6.48812 0.927254 6.43769 0.85169 6.40371C0.776126 6.36972 0.695147 6.35288 0.613572 6.35419C0.531997 6.3555 0.451493 6.37492 0.376853 6.41131C0.302212 6.4477 0.234961 6.50031 0.1791 6.566C0.121284 6.6296 0.0756383 6.70539 0.0448806 6.78888C0.0141229 6.87237 -0.00111838 6.96184 6.38703e-05 7.05197C0.00124612 7.1421 0.0188277 7.23104 0.0517623 7.31351C0.0846969 7.39598 0.132311 7.47028 0.191771 7.532L4.06918 11.718C4.12568 11.7806 4.19283 11.8304 4.26676 11.8643C4.34069 11.8982 4.41995 11.9157 4.5 11.9157C4.58005 11.9157 4.65931 11.8982 4.73324 11.8643C4.80717 11.8304 4.87432 11.7806 4.93082 11.718L8.80823 7.532C8.86769 7.47028 8.9153 7.39598 8.94824 7.31351C8.98117 7.23104 8.99875 7.1421 8.99994 7.05197C9.00112 6.96184 8.98588 6.87237 8.95512 6.78888C8.92436 6.70539 8.87872 6.6296 8.8209 6.566Z" fill="#FD4D00"/>
</svg>
