<svg width="20" height="20" viewBox="0 0 20 20" fill="none" xmlns="http://www.w3.org/2000/svg">
<path d="M15.832 18.3333H4.16536C3.70513 18.3333 3.33203 17.9602 3.33203 17.5V9.51163C3.33203 9.29064 3.41991 9.07871 3.5762 8.92247L9.40953 3.08913C9.56584 2.93265 9.77794 2.84473 9.99911 2.84473C10.2203 2.84473 10.4324 2.93265 10.5887 3.08913L16.422 8.92247C16.5785 9.07853 16.6661 9.29065 16.6654 9.51163V17.5C16.6654 17.9602 16.2923 18.3333 15.832 18.3333ZM8.33203 12.5H11.6654V16.6666H14.9987V9.85663L9.9987 4.85663L4.9987 9.85663V16.6666H8.33203V12.5Z" fill="#FFF7F3"/>
</svg>
