<svg width="21" height="21" viewBox="0 0 21 21" fill="none" xmlns="http://www.w3.org/2000/svg">
<g clip-path="url(#clip0_1_107875)">
<path d="M10.4956 1.75C5.66125 1.75 1.75 5.66562 1.75 10.5C1.75 15.3344 5.66125 19.25 10.4956 19.25C15.33 19.25 19.25 15.3344 19.25 10.5C19.25 5.66562 15.33 1.75 10.4956 1.75ZM16.555 7H13.9738C13.6894 5.90625 13.2913 4.85625 12.7663 3.885C14.3763 4.43625 15.715 5.55188 16.555 7ZM10.5 3.53062C11.2306 4.58062 11.7994 5.74875 12.1712 7H8.82875C9.20062 5.74875 9.76937 4.58062 10.5 3.53062ZM3.7275 12.25C3.58313 11.69 3.5 11.1038 3.5 10.5C3.5 9.89625 3.58313 9.31 3.7275 8.75H6.68062C6.61063 9.32312 6.5625 9.905 6.5625 10.5C6.5625 11.095 6.61062 11.6769 6.685 12.25H3.7275ZM4.44062 14H7.02187C7.30625 15.0938 7.70437 16.1438 8.22937 17.1194C6.61937 16.5681 5.28062 15.4481 4.44062 14ZM7.02187 7H4.44062C5.28062 5.55188 6.61937 4.43187 8.22937 3.88063C7.70437 4.85625 7.30625 5.90625 7.02187 7ZM10.5 17.4694C9.77375 16.4194 9.205 15.2513 8.82875 14H12.1712C11.795 15.2513 11.2262 16.4194 10.5 17.4694ZM12.5475 12.25H8.4525C8.36937 11.6769 8.3125 11.095 8.3125 10.5C8.3125 9.905 8.36937 9.32312 8.4525 8.75H12.5475C12.6306 9.32312 12.6875 9.905 12.6875 10.5C12.6875 11.095 12.6306 11.6769 12.5475 12.25ZM12.7706 17.115C13.2956 16.1394 13.6938 15.0938 13.9781 14H16.5594C15.715 15.4481 14.3763 16.5637 12.7706 17.115ZM14.315 12.25C14.385 11.6769 14.4375 11.095 14.4375 10.5C14.4375 9.905 14.3894 9.32312 14.315 8.75H17.2681C17.4125 9.31 17.5 9.89625 17.5 10.5C17.5 11.1038 17.4169 11.69 17.2681 12.25H14.315Z" fill="#FD4D00"/>
</g>
<defs>
<clipPath id="clip0_1_107875">
<rect width="21" height="21" fill="white"/>
</clipPath>
</defs>
</svg>
