<svg width="18" height="18" viewBox="0 0 18 18" fill="none" xmlns="http://www.w3.org/2000/svg">
<path d="M14.5273 3.66747L10.1323 1.70997C9.48727 1.42497 8.51227 1.42497 7.86727 1.70997L3.47227 3.66747C2.36227 4.16247 2.19727 4.83747 2.19727 5.19747C2.19727 5.55747 2.36227 6.23247 3.47227 6.72747L7.86727 8.68497C8.18977 8.82747 8.59477 8.90247 8.99977 8.90247C9.40477 8.90247 9.80977 8.82747 10.1323 8.68497L14.5273 6.72747C15.6373 6.23247 15.8023 5.55747 15.8023 5.19747C15.8023 4.83747 15.6448 4.16247 14.5273 3.66747Z" fill="#FD4D00"/>
<path d="M9.00023 12.78C8.71523 12.78 8.43023 12.72 8.16774 12.6075L3.11273 10.3575C2.34023 10.0125 1.74023 9.09 1.74023 8.2425C1.74023 7.935 1.98773 7.6875 2.29523 7.6875C2.60273 7.6875 2.85023 7.935 2.85023 8.2425C2.85023 8.6475 3.18773 9.1725 3.56273 9.3375L8.61773 11.5875C8.85773 11.6925 9.13523 11.6925 9.37523 11.5875L14.4302 9.3375C14.8052 9.1725 15.1427 8.655 15.1427 8.2425C15.1427 7.935 15.3902 7.6875 15.6977 7.6875C16.0052 7.6875 16.2527 7.935 16.2527 8.2425C16.2527 9.0825 15.6527 10.0125 14.8802 10.3575L9.82524 12.6075C9.57023 12.72 9.28523 12.78 9.00023 12.78Z" fill="#FD4D00"/>
<path d="M9.00023 16.4997C8.71523 16.4997 8.43023 16.4397 8.16774 16.3272L3.11273 14.0772C2.28023 13.7097 1.74023 12.8772 1.74023 11.9622C1.74023 11.6547 1.98773 11.4072 2.29523 11.4072C2.60273 11.4072 2.85023 11.6547 2.85023 11.9622C2.85023 12.4347 3.12773 12.8622 3.56273 13.0572L8.61773 15.3072C8.85773 15.4122 9.13523 15.4122 9.37523 15.3072L14.4302 13.0572C14.8577 12.8697 15.1427 12.4347 15.1427 11.9622C15.1427 11.6547 15.3902 11.4072 15.6977 11.4072C16.0052 11.4072 16.2527 11.6547 16.2527 11.9622C16.2527 12.8772 15.7127 13.7022 14.8802 14.0772L9.82524 16.3272C9.57023 16.4397 9.28523 16.4997 9.00023 16.4997Z" fill="#FD4D00"/>
</svg>
