<svg width="12" height="13" viewBox="0 0 12 13" fill="none" xmlns="http://www.w3.org/2000/svg">
<path d="M1.33333 1.3H2V0H3.33333V1.3H8.66667V0H10V1.3H10.6667C11.4067 1.3 12 1.885 12 2.6V11.7C12 12.415 11.4067 13 10.6667 13H1.33333C0.6 13 4.54485e-07 12.415 4.54485e-07 11.7V2.6C4.54485e-07 1.885 0.6 1.3 1.33333 1.3ZM6 3.25C4.89333 3.25 4 4.121 4 5.2C4 6.279 4.89333 7.15 6 7.15C7.10667 7.15 8 6.279 8 5.2C8 4.121 7.10667 3.25 6 3.25ZM2 11.05H10V10.4C10 9.1 7.33333 8.385 6 8.385C4.66667 8.385 2 9.1 2 10.4V11.05Z" fill="#FD4D00"/>
</svg>
