<svg width="22" height="20" viewBox="0 0 22 20" fill="none" xmlns="http://www.w3.org/2000/svg">
<g clip-path="url(#clip0_70_1452)">
<path fill-rule="evenodd" clip-rule="evenodd" d="M-1.65665 0.36308C-1.65418 1.94417 -1.64799 3.19125 -1.6429 3.1344C-1.53491 1.92895 -0.9956 0.658429 -0.200489 -0.263535C0.25627 -0.793199 0.848871 -1.28912 1.4307 -1.6286C2.24828 -2.10563 3.0587 -2.36746 4.11 -2.49421C4.15399 -2.4995 2.87349 -2.5056 1.26442 -2.50772L-1.66113 -2.5116L-1.65665 0.36308ZM18.1447 -2.49405C19.3241 -2.37687 20.4291 -1.95852 21.3967 -1.26276C21.7224 -1.02857 22.3992 -0.372527 22.6408 -0.0568163C23.3574 0.879747 23.7903 1.95409 23.911 3.09564C23.9163 3.14538 23.9225 1.90411 23.9249 0.33724L23.9291 -2.5116L20.9902 -2.50746C19.3738 -2.50519 18.0933 -2.49914 18.1447 -2.49405ZM10.6808 0.475199C9.40758 0.581504 8.51598 0.774837 7.50871 1.163C4.32853 2.38853 2.04953 5.08515 1.4982 8.27484C1.38592 8.9245 1.36566 9.19458 1.3683 10.0078C1.37387 11.7455 1.54599 12.7857 2.27044 15.46C2.60668 16.7012 2.76385 17.6275 2.76385 18.368C2.76385 18.8564 3.02586 19.1721 3.52612 19.2865C3.78437 19.3455 4.28356 19.323 4.64313 19.236C5.45882 19.0387 6.23434 18.6405 6.74833 18.155C6.88065 18.0301 6.99136 17.9278 6.99432 17.9278C6.9973 17.9277 7.14725 18.0246 7.32752 18.1431C8.5903 18.9729 9.36907 19.2146 10.9341 19.262C13.6592 19.3446 16.1835 18.382 18.0917 16.5326C20.3917 14.3034 21.3574 11.1414 20.7039 7.97936C20.3167 6.10608 19.3703 4.42019 17.9548 3.0822C16.4502 1.65998 14.6304 0.809463 12.5068 0.535974C12.1245 0.48675 10.9934 0.449101 10.6808 0.475199ZM10.6675 5.10347C9.63408 5.19546 8.58555 5.67453 7.84362 6.39373C6.64781 7.5529 6.0876 9.2675 6.20257 11.4164C6.26617 12.6056 6.47366 13.6185 6.78738 14.2713C6.90344 14.5129 7.0061 14.6394 7.12509 14.6876C7.24398 14.7358 7.41202 14.684 7.66865 14.52C7.87577 14.3877 8.31816 14.0381 8.45109 13.9017L8.52712 13.8237L8.691 13.9271C8.93294 14.0796 9.45892 14.3229 9.74751 14.4156C10.716 14.7268 11.734 14.7215 12.7284 14.3999C13.5459 14.1356 14.3354 13.6292 14.896 13.0093C15.7666 12.0469 16.2272 10.7586 16.1241 9.57502C16.0657 8.90597 15.9196 8.38672 15.6276 7.8114C14.8563 6.2913 13.3861 5.29755 11.6348 5.11264C11.3913 5.0869 10.9053 5.0823 10.6675 5.10347ZM-1.65687 19.3941L-1.66113 22.2946L1.33106 22.2903C2.97678 22.2879 4.27527 22.2819 4.21663 22.2769C1.96391 22.0863 -0.0133605 20.7841 -0.994347 18.845C-1.36335 18.1156 -1.55901 17.4342 -1.64359 16.584C-1.64855 16.5343 -1.65452 17.7988 -1.65687 19.3941ZM23.9025 16.7107C23.9025 16.7661 23.8783 16.9492 23.8486 17.1176C23.6744 18.1089 23.2731 19.0135 22.6408 19.8398C22.3992 20.1555 21.7224 20.8116 21.3967 21.0458C20.4276 21.7426 19.3259 22.1597 18.1447 22.2771C18.0933 22.2821 19.3738 22.2882 20.9902 22.2905L23.9291 22.2946V19.4522C23.9291 17.8889 23.9231 16.6098 23.9158 16.6098C23.9085 16.6098 23.9025 16.6552 23.9025 16.7107Z" fill="#0061FD"/>
</g>
<defs>
<clipPath id="clip0_70_1452">
<rect width="21.5385" height="20" fill="white"/>
</clipPath>
</defs>
</svg>
