<svg width="22" height="20" viewBox="0 0 22 20" fill="none" xmlns="http://www.w3.org/2000/svg">
<g clip-path="url(#clip0_1_107879)">
<path fill-rule="evenodd" clip-rule="evenodd" d="M-1.65714 0.36308C-1.65466 1.94417 -1.64848 3.19125 -1.64339 3.1344C-1.5354 1.92895 -0.996088 0.658429 -0.200978 -0.263535C0.255782 -0.793199 0.848383 -1.28912 1.43021 -1.6286C2.2478 -2.10563 3.05821 -2.36746 4.10951 -2.49421C4.1535 -2.4995 2.873 -2.5056 1.26393 -2.50772L-1.66162 -2.5116L-1.65714 0.36308ZM18.1442 -2.49405C19.3236 -2.37687 20.4286 -1.95852 21.3963 -1.26276C21.722 -1.02857 22.3987 -0.372527 22.6403 -0.0568163C23.3569 0.879747 23.7898 1.95409 23.9105 3.09564C23.9158 3.14538 23.922 1.90411 23.9244 0.33724L23.9286 -2.5116L20.9897 -2.50746C19.3734 -2.50519 18.0929 -2.49914 18.1442 -2.49405ZM10.6803 0.475199C9.4071 0.581504 8.51549 0.774837 7.50822 1.163C4.32804 2.38853 2.04905 5.08515 1.49771 8.27484C1.38543 8.9245 1.36517 9.19458 1.36781 10.0078C1.37338 11.7455 1.5455 12.7857 2.26995 15.46C2.60619 16.7012 2.76336 17.6275 2.76336 18.368C2.76336 18.8564 3.02537 19.1721 3.52563 19.2865C3.78388 19.3455 4.28307 19.323 4.64264 19.236C5.45833 19.0387 6.23385 18.6405 6.74784 18.155C6.88017 18.0301 6.99087 17.9278 6.99383 17.9278C6.99681 17.9277 7.14676 18.0246 7.32703 18.1431C8.58981 18.9729 9.36858 19.2146 10.9336 19.262C13.6587 19.3446 16.183 18.382 18.0912 16.5326C20.3912 14.3034 21.3569 11.1414 20.7034 7.97936C20.3162 6.10608 19.3698 4.42019 17.9543 3.0822C16.4497 1.65998 14.6299 0.809463 12.5063 0.535974C12.1241 0.48675 10.9929 0.449101 10.6803 0.475199ZM10.667 5.10347C9.6336 5.19546 8.58506 5.67453 7.84313 6.39373C6.64732 7.5529 6.08711 9.2675 6.20208 11.4164C6.26568 12.6056 6.47317 13.6185 6.78689 14.2713C6.90296 14.5129 7.00561 14.6394 7.12461 14.6876C7.24349 14.7358 7.41154 14.684 7.66816 14.52C7.87528 14.3877 8.31767 14.0381 8.45061 13.9017L8.52663 13.8237L8.69052 13.9271C8.93245 14.0796 9.45844 14.3229 9.74702 14.4156C10.7155 14.7268 11.7335 14.7215 12.7279 14.3999C13.5454 14.1356 14.3349 13.6292 14.8955 13.0093C15.7661 12.0469 16.2267 10.7586 16.1236 9.57502C16.0653 8.90597 15.9191 8.38672 15.6272 7.8114C14.8558 6.2913 13.3856 5.29755 11.6344 5.11264C11.3908 5.0869 10.9048 5.0823 10.667 5.10347ZM-1.65736 19.3941L-1.66162 22.2946L1.33057 22.2903C2.97629 22.2879 4.27478 22.2819 4.21614 22.2769C1.96342 22.0863 -0.0138488 20.7841 -0.994835 18.845C-1.36384 18.1156 -1.5595 17.4342 -1.64408 16.584C-1.64904 16.5343 -1.65501 17.7988 -1.65736 19.3941ZM23.902 16.7107C23.902 16.7661 23.8778 16.9492 23.8482 17.1176C23.674 18.1089 23.2726 19.0135 22.6403 19.8398C22.3987 20.1555 21.722 20.8116 21.3963 21.0458C20.4271 21.7426 19.3254 22.1597 18.1442 22.2771C18.0929 22.2821 19.3734 22.2882 20.9897 22.2905L23.9286 22.2946V19.4522C23.9286 17.8889 23.9226 16.6098 23.9153 16.6098C23.908 16.6098 23.902 16.6552 23.902 16.7107Z" fill="#FD4D00"/>
</g>
<defs>
<clipPath id="clip0_1_107879">
<rect width="21.5385" height="20" fill="white"/>
</clipPath>
</defs>
</svg>
