<svg width="19" height="19" viewBox="0 0 19 19" fill="none" xmlns="http://www.w3.org/2000/svg">
<path d="M9.24984 17.5827C8.71796 17.5827 8.21692 17.3129 7.86234 16.8427L6.70609 15.301C6.68296 15.2702 6.59046 15.2317 6.55192 15.224H6.1665C2.95213 15.224 0.963379 14.3529 0.963379 10.0208V6.16667C0.963379 2.75958 2.75942 0.963542 6.1665 0.963542H12.3332C15.7403 0.963542 17.5363 2.75958 17.5363 6.16667V10.0208C17.5363 13.4279 15.7403 15.224 12.3332 15.224H11.9478C11.8861 15.224 11.8321 15.2548 11.7936 15.301L10.6373 16.8427C10.2828 17.3129 9.78171 17.5827 9.24984 17.5827ZM6.1665 2.11979C3.40692 2.11979 2.11963 3.40708 2.11963 6.16667V10.0208C2.11963 13.505 3.31442 14.0677 6.1665 14.0677H6.55192C6.94505 14.0677 7.39213 14.2912 7.63109 14.6073L8.78734 16.149C9.05713 16.5035 9.44255 16.5035 9.71234 16.149L10.8686 14.6073C11.123 14.2681 11.5238 14.0677 11.9478 14.0677H12.3332C15.0928 14.0677 16.38 12.7804 16.38 10.0208V6.16667C16.38 3.40708 15.0928 2.11979 12.3332 2.11979H6.1665Z" fill="white"/>
<path d="M13.1043 6.74479H5.396C5.07995 6.74479 4.81787 6.48271 4.81787 6.16667C4.81787 5.85062 5.07995 5.58854 5.396 5.58854H13.1043C13.4204 5.58854 13.6825 5.85062 13.6825 6.16667C13.6825 6.48271 13.4204 6.74479 13.1043 6.74479Z" fill="white"/>
<path d="M10.021 10.599H5.396C5.07995 10.599 4.81787 10.3369 4.81787 10.0208C4.81787 9.70479 5.07995 9.44271 5.396 9.44271H10.021C10.337 9.44271 10.5991 9.70479 10.5991 10.0208C10.5991 10.3369 10.337 10.599 10.021 10.599Z" fill="white"/>
</svg>
