<svg width="15" height="15" viewBox="0 0 15 15" fill="none" xmlns="http://www.w3.org/2000/svg">
<path d="M6.83291 4.88075V2.92841H5.46628C4.71345 2.92841 4.20774 2.92937 3.83052 2.96838C3.47014 3.00565 3.31591 3.07006 3.21414 3.14834C3.11237 3.22663 3.02864 3.34526 2.98018 3.62247C2.92946 3.91265 2.92822 4.30165 2.92822 4.88075H6.83291Z" fill="#FFF7F3"/>
<path d="M11.7143 4.88075C11.7143 4.30165 11.713 3.91265 11.6623 3.62247C11.6139 3.34526 11.5301 3.22663 11.4284 3.14834C11.3266 3.07006 11.1724 3.00565 10.812 2.96838C10.4348 2.92937 9.92903 2.92841 9.17621 2.92841H7.80957V4.88075H11.7143Z" fill="#FFF7F3"/>
<path fill-rule="evenodd" clip-rule="evenodd" d="M8.05342 0H6.58916C3.82815 0 2.44763 -1.04211e-07 1.58989 1.02417C0.841311 1.91799 0.746039 3.28726 0.733915 5.8128V7.22644C0.455457 7.4178 0.235746 7.7145 0.111459 8.07274C3.27287e-08 8.39409 0 8.80137 0 9.61602C0 10.4307 3.27287e-08 10.838 0.111459 11.1593C0.260074 11.5877 0.545129 11.9281 0.903908 12.1055C1.08869 12.1969 1.30744 12.2255 1.64729 12.2345V13.9869C1.64729 14.349 1.89313 14.6426 2.19639 14.6426C2.49964 14.6426 2.74548 14.349 2.74548 13.9869V12.2386H11.8971V13.9869C11.8971 14.349 12.1429 14.6426 12.4462 14.6426C12.7494 14.6426 12.9953 14.349 12.9953 13.9869V12.2345C13.3351 12.2255 13.5539 12.1969 13.7387 12.1055C14.0974 11.9281 14.3825 11.5877 14.5311 11.1593C14.6426 10.838 14.6426 10.4307 14.6426 9.61602C14.6426 8.80137 14.6426 8.39409 14.5311 8.07274C14.4068 7.7145 14.1871 7.4178 13.9087 7.22653V5.8128C13.8966 3.28726 13.8013 1.91799 13.0528 1.02417C12.195 -1.04211e-07 10.8145 0 8.05342 0ZM12.6292 6.99356V5.63674C12.6293 4.85133 12.6293 4.19633 12.5707 3.6764C12.5089 3.12759 12.373 2.63211 12.0396 2.23394C11.7061 1.83578 11.2911 1.67347 10.8315 1.59968C10.396 1.52978 9.8475 1.5298 9.18968 1.52982H5.45292C4.79512 1.5298 4.24659 1.52978 3.81113 1.59968C3.35151 1.67347 2.93653 1.83578 2.60308 2.23394C2.26961 2.63211 2.13367 3.12759 2.07188 3.6764C2.01333 4.19634 2.01335 4.8513 2.01338 5.63674V6.99356C2.07153 6.99347 2.13246 6.99347 2.19639 6.99347H12.4462C12.5101 6.99347 12.5711 6.99347 12.6292 6.99356Z" fill="#FFF7F3"/>
</svg>
