<svg width="15" height="17" viewBox="0 0 15 17" fill="none" xmlns="http://www.w3.org/2000/svg">
<path d="M4.1553 1H3.52424C2.64068 1 2.19889 1 1.86141 1.19726C1.56455 1.37076 1.3232 1.64762 1.17196 1.98815C1 2.37528 1 2.88206 1 3.89564V4.61955M1 7.33421V9.14398M1 11.8586V12.5825C1 13.5961 1 14.1029 1.17196 14.4901C1.3232 14.8306 1.56455 15.1075 1.86141 15.2809C2.19889 15.4782 2.64067 15.4782 3.52424 15.4782H4.1553M6.52177 15.4782H8.09942M10.4659 15.4782H11.097C11.9805 15.4782 12.4223 15.4782 12.7598 15.2809C13.0566 15.1075 13.298 14.8306 13.4492 14.4901C13.6212 14.1029 13.6212 13.5961 13.6212 12.5825V11.8586M13.6212 9.14398V7.33421M13.6212 4.61955V3.89564C13.6212 2.88207 13.6212 2.37528 13.4492 1.98815C13.298 1.64762 13.0566 1.37076 12.7598 1.19726C12.4223 1 11.9805 1 11.097 1H10.4659M8.09942 1H6.52177" stroke="#FFF7F3" stroke-width="2" stroke-miterlimit="16" stroke-linecap="round" stroke-dasharray="9 9"/>
<rect x="4.65479" y="5.70721" width="5.3106" height="5.3106" rx="1.5" fill="#FFF7F3" stroke="#FFF7F3"/>
</svg>
