<svg width="16" height="17" viewBox="0 0 16 17" fill="none" xmlns="http://www.w3.org/2000/svg">
<path d="M4.26902 1H3.61521C2.69981 1 2.2421 1 1.89246 1.20437C1.5849 1.38412 1.33485 1.67096 1.17815 2.02377C1 2.42485 1 2.9499 1 4V4.75M1 7.5625V9.4375M1 12.25V13C1 14.0501 1 14.5752 1.17815 14.9763C1.33485 15.329 1.5849 15.6159 1.89246 15.7956C2.2421 16 2.6998 16 3.61521 16H4.26902M6.72078 16H8.35529M10.8071 16H11.4609C12.3763 16 12.834 16 13.1836 15.7956C13.4912 15.6159 13.7412 15.329 13.8979 14.9763C14.0761 14.5752 14.0761 14.0501 14.0761 13V12.25M14.0761 9.4375V7.5625M14.0761 4.75V4C14.0761 2.94991 14.0761 2.42485 13.8979 2.02377C13.7412 1.67096 13.4912 1.38412 13.1836 1.20437C12.834 1 12.3763 1 11.4609 1H10.8071M8.35529 1H6.72078" stroke="#FD4D00" stroke-width="2" stroke-miterlimit="16" stroke-linecap="round" stroke-dasharray="9 9"/>
<rect x="4.26855" y="5.3587" width="6.53804" height="6.53804" rx="2" fill="#FD4D00"/>
</svg>
