<svg width="17" height="17" viewBox="0 0 17 17" fill="none" xmlns="http://www.w3.org/2000/svg">
<path d="M7.93324 5.66666V3.39999H6.34659C5.47255 3.39999 4.88542 3.40111 4.44746 3.4464C4.02907 3.48967 3.85 3.56445 3.73185 3.65534C3.6137 3.74623 3.51648 3.88397 3.46022 4.2058C3.40134 4.54269 3.3999 4.99433 3.3999 5.66666H7.93324Z" fill="#FD4D00"/>
<path d="M13.6002 5.66666C13.6002 4.99433 13.5988 4.54269 13.5399 4.2058C13.4837 3.88397 13.3864 3.74623 13.2683 3.65534C13.1502 3.56445 12.9711 3.48967 12.5527 3.4464C12.1147 3.40111 11.5276 3.39999 10.6536 3.39999H9.06689V5.66666H13.6002Z" fill="#FD4D00"/>
<path fill-rule="evenodd" clip-rule="evenodd" d="M9.35 0H7.65C4.44447 0 2.84169 -1.20989e-07 1.84586 1.18906C0.97676 2.22679 0.86615 3.8165 0.852074 6.74864V8.38988C0.528785 8.61205 0.2737 8.95651 0.129404 9.37243C3.7998e-08 9.74552 0 10.2184 0 11.1642C0 12.11 3.7998e-08 12.5828 0.129404 12.9559C0.301946 13.4532 0.632893 13.8485 1.04944 14.0545C1.26397 14.1605 1.51794 14.1938 1.9125 14.2042V16.2388C1.9125 16.6592 2.19792 17 2.55 17C2.90208 17 3.1875 16.6592 3.1875 16.2388V14.209H13.8125V16.2388C13.8125 16.6592 14.0979 17 14.45 17C14.8021 17 15.0875 16.6592 15.0875 16.2388V14.2042C15.4821 14.1938 15.7361 14.1605 15.9506 14.0545C16.3671 13.8485 16.6981 13.4532 16.8706 12.9559C17 12.5828 17 12.11 17 11.1642C17 10.2184 17 9.74552 16.8706 9.37243C16.7263 8.95651 16.4712 8.61205 16.148 8.38998V6.74864C16.1339 3.8165 16.0233 2.22679 15.1542 1.18906C14.1584 -1.20989e-07 12.5556 0 9.35 0ZM14.6625 8.1195V6.54424C14.6626 5.63238 14.6626 4.87193 14.5946 4.26829C14.5228 3.63113 14.365 3.05587 13.9779 2.5936C13.5907 2.13133 13.109 1.94289 12.5753 1.85722C12.0697 1.77607 11.4329 1.77609 10.6692 1.77612H6.33083C5.56712 1.77609 4.93028 1.77607 4.42472 1.85722C3.8911 1.94289 3.40931 2.13133 3.02217 2.5936C2.63502 3.05587 2.47719 3.63113 2.40545 4.26829C2.33747 4.87195 2.3375 5.63235 2.33753 6.54424V8.1195C2.40504 8.1194 2.47579 8.1194 2.55 8.1194H14.45C14.5242 8.1194 14.595 8.1194 14.6625 8.1195Z" fill="#FD4D00"/>
</svg>
