<svg width="46" height="48" viewBox="0 0 46 48" fill="none" xmlns="http://www.w3.org/2000/svg">
<path fill-rule="evenodd" clip-rule="evenodd" d="M45.2468 2.37859V19.0287C45.2468 20.347 44.1565 21.4073 43.0662 21.4073H20.4428V45.1932C20.4428 45.8237 20.1702 46.4255 19.6251 46.8554C19.3525 47.3139 18.8074 47.5718 17.9897 47.5718H2.18057C1.09028 47.5718 0 46.5115 0 45.1932V2.37859C0 1.06034 1.09028 0 2.18057 0H43.0662C44.1565 0 45.2468 1.06034 45.2468 2.37859ZM40.6131 4.75684H4.63379V42.8143H15.8092V35.6785H11.1755C10.0852 35.6785 8.99492 34.6182 8.99492 33.2999C8.99492 31.9817 10.0852 30.9213 11.1755 30.9213H15.8092V21.407H11.1755C10.0852 21.407 8.99492 20.3466 8.99492 19.0284C8.99492 17.7101 10.0852 16.6498 11.1755 16.6498H15.8092V11.8926C15.8092 10.5744 16.8995 9.51402 17.9898 9.51402C19.3526 9.51402 20.4429 10.5744 20.4429 11.8926V16.6498H29.4377V11.8926C29.4377 10.5744 30.528 9.51402 31.6183 9.51402C32.9812 9.51402 33.7989 10.5744 33.7989 11.8926V16.6498H40.6131V4.75684Z" fill="#FD4D00"/>
</svg>
