<svg width="70" height="70" viewBox="0 0 70 70" fill="none" xmlns="http://www.w3.org/2000/svg">
<path d="M48.3504 58.3335L31.53 41.516C25.2411 45.6647 16.8329 44.3813 12.068 38.5455C7.30311 32.7097 7.72735 24.2147 13.05 18.8827C18.3811 13.558 26.8771 13.1319 32.7141 17.8965C38.5512 22.6611 39.8353 31.0702 35.6862 37.3597L52.5008 54.1802L48.3504 58.3335ZM23.4333 20.4576C19.2311 20.455 15.6122 23.4211 14.7897 27.542C13.9673 31.6629 16.1703 35.7909 20.0515 37.4016C23.9328 39.0123 28.4113 37.657 30.7483 34.1646C33.0852 30.6721 32.6298 26.0153 29.6604 23.0418C28.0132 21.3832 25.7709 20.4527 23.4333 20.4576ZM55.4175 32.0835H49.5842V26.2502H43.7508V20.4168H49.5842V14.5835H55.4175V20.4168H61.2508V26.2502H55.4175V32.0835Z" fill="#FD4D00"/>
</svg>
