<svg width="18" height="18" viewBox="0 0 18 18" fill="none" xmlns="http://www.w3.org/2000/svg">
<path d="M9.69 1.695L14.5725 4.3275C15.1425 4.635 15.1425 5.5125 14.5725 5.82L9.69 8.45251C9.255 8.68501 8.745 8.68501 8.31 8.45251L3.4275 5.82C2.8575 5.5125 2.8575 4.635 3.4275 4.3275L8.31 1.695C8.745 1.4625 9.255 1.4625 9.69 1.695Z" stroke="#FD4D00" stroke-width="1.125" stroke-linecap="round" stroke-linejoin="round"/>
<path d="M2.7075 7.59751L7.245 9.87001C7.8075 10.155 8.1675 10.7325 8.1675 11.3625V15.6525C8.1675 16.275 7.515 16.6725 6.96 16.395L2.4225 14.1225C1.86 13.8375 1.5 13.26 1.5 12.63V8.34001C1.5 7.71751 2.1525 7.32001 2.7075 7.59751Z" stroke="#FD4D00" stroke-width="1.125" stroke-linecap="round" stroke-linejoin="round"/>
<path d="M15.292 7.59751L10.7545 9.87001C10.192 10.155 9.83203 10.7325 9.83203 11.3625V15.6525C9.83203 16.275 10.4845 16.6725 11.0395 16.395L15.577 14.1225C16.1395 13.8375 16.4995 13.26 16.4995 12.63V8.34001C16.4995 7.71751 15.847 7.32001 15.292 7.59751Z" stroke="#FD4D00" stroke-width="1.125" stroke-linecap="round" stroke-linejoin="round"/>
</svg>
