<svg width="27" height="27" viewBox="0 0 27 27" fill="none" xmlns="http://www.w3.org/2000/svg">
<path d="M1.54435 14.3216L6.40234 16.0521L8.29612 21.8729C8.37846 22.2662 8.87249 22.3448 9.20185 22.1088L11.919 19.9851C12.166 19.7491 12.5777 19.7491 12.9071 19.9851L17.765 23.3674C18.0944 23.6034 18.5884 23.446 18.6708 23.0528L22.2937 6.53435C22.376 6.14106 21.9643 5.74777 21.5526 5.90509L1.54435 13.299C1.05032 13.4564 1.05032 14.1643 1.54435 14.3216ZM8.04911 15.1868L17.6004 9.60206C17.765 9.5234 17.9297 9.75938 17.765 9.83804L9.94289 16.8387C9.69587 17.0747 9.44885 17.3893 9.44885 17.7826L9.20185 19.6704C9.20185 19.9064 8.79015 19.9851 8.70781 19.6704L7.71974 16.2094C7.47272 15.8161 7.63742 15.3442 8.04911 15.1868Z" fill="#4A9BB9"/>
</svg>
