<svg width="18" height="13" viewBox="0 0 18 13" fill="none" xmlns="http://www.w3.org/2000/svg">
<path d="M2.37516 3.16666H4.75016V-1.09673e-05H15.8335C16.7083 -1.09673e-05 17.4168 0.708531 17.4168 1.58332V10.2917H15.8335C15.8335 11.6019 14.7687 12.6667 13.4585 12.6667C12.1483 12.6667 11.0835 11.6019 11.0835 10.2917H6.33349C6.33349 11.6019 5.2687 12.6667 3.95849 12.6667C2.64828 12.6667 1.58349 11.6019 1.58349 10.2917H0.0001598V6.33332L2.37516 3.16666ZM13.4585 11.4792C14.1156 11.4792 14.646 10.9487 14.646 10.2917C14.646 9.63457 14.1156 9.10416 13.4585 9.10416C12.8014 9.10416 12.271 9.63457 12.271 10.2917C12.271 10.9487 12.8014 11.4792 13.4585 11.4792ZM2.77099 4.35416L1.21537 6.33332H4.75016V4.35416H2.77099ZM3.95849 11.4792C4.61558 11.4792 5.14599 10.9487 5.14599 10.2917C5.14599 9.63457 4.61558 9.10416 3.95849 9.10416C3.30141 9.10416 2.77099 9.63457 2.77099 10.2917C2.77099 10.9487 3.30141 11.4792 3.95849 11.4792Z" fill="#FD4D00"/>
</svg>
