<svg width="23" height="13" viewBox="0 0 23 13" fill="none" xmlns="http://www.w3.org/2000/svg">
<path d="M13.7758 6.25321C13.3598 6.09954 13.3598 5.51264 13.334 5.10394C13.23 3.64816 13.75 1.42565 13.126 0.480733C12.6842 -0.0816382 10.5519 -0.0301421 9.25229 0.0466934C8.88788 0.0981896 8.44609 0.174208 8.13409 0.32788C7.8221 0.481551 7.5101 0.736579 7.5101 0.966268C7.5101 1.29813 8.29051 1.24745 8.57588 1.68149C8.88788 2.14169 8.88788 3.13728 8.88788 3.95468C8.88788 4.89959 8.73146 6.15185 8.34209 6.20253C7.74389 6.22787 7.4061 5.64016 7.09411 5.20612C6.47011 4.36338 5.84612 3.31547 5.37771 2.29373C5.14392 1.75751 5.0133 1.1698 4.67551 0.940111C4.15552 0.58209 3.21953 0.556751 2.30933 0.582091C1.47734 0.60743 0.280944 0.505255 0.0471545 0.99079C-0.135051 1.527 0.255152 2.03788 0.463149 2.47274C1.52893 4.74592 2.67291 6.73874 4.07731 8.62857C5.37771 10.3909 6.59907 11.796 8.99104 12.5366C9.66745 12.7409 12.631 13.3286 13.2292 12.5366C13.4372 12.23 13.3856 11.5401 13.4896 11.0293C13.5936 10.5184 13.7234 10.0075 14.2176 9.98218C14.6336 9.95685 14.8674 10.314 15.1278 10.5699C15.414 10.8511 15.6478 11.0808 15.8558 11.3366C16.35 11.8222 16.87 12.4859 17.494 12.7417C18.3518 13.0997 19.6779 12.9976 20.9259 12.9461C21.9401 12.9207 22.6681 12.7164 22.7463 12.1287C22.7987 11.6685 22.2779 11.0048 21.9659 10.6214C21.1855 9.67648 20.8219 9.39529 19.9375 8.5264C19.5473 8.14304 19.0531 7.73434 19.0531 7.27496C19.0273 6.99377 19.2611 6.73874 19.4691 6.45756C20.3793 5.12928 21.2895 4.18437 22.1215 2.8046C22.3553 2.3959 22.9019 1.45099 22.6939 0.99079C22.4601 0.479916 21.1597 0.632769 20.3535 0.632769C19.3135 0.632769 17.9616 0.555933 17.7011 0.760283C17.2069 1.09215 16.9989 1.62918 16.7652 2.14005C16.2452 3.31547 15.543 4.51542 14.815 5.40965C14.5546 5.71618 14.062 6.35538 13.7758 6.25321Z" fill="#0077FF"/>
</svg>
