<svg width="351" height="181" viewBox="0 0 351 181" fill="none" xmlns="http://www.w3.org/2000/svg">
<g clip-path="url(#clip0_22_212)">
<path d="M236.333 52H222V24H193.333V52H78.6667V24H50V52H35.6667C19.7567 52 7 64.6 7 80V276C7 291.4 19.7567 304 35.6667 304H236.333C252.1 304 265 291.4 265 276V80C265 64.6 252.1 52 236.333 52ZM136 94C159.793 94 179 112.76 179 136C179 159.24 159.793 178 136 178C112.207 178 93 159.24 93 136C93 112.76 112.207 94 136 94ZM222 262H50V248C50 220 107.333 204.6 136 204.6C164.667 204.6 222 220 222 248V262Z" fill="#FD4D00" fill-opacity="0.06"/>
</g>
<defs>
<clipPath id="clip0_22_212">
<rect width="351" height="181" fill="white"/>
</clipPath>
</defs>
</svg>
