<svg width="303" height="371" viewBox="0 0 303 371" fill="none" xmlns="http://www.w3.org/2000/svg">
<path d="M269.333 33.6667H198.886C191.984 14.14 173.467 0 151.5 0C129.533 0 111.016 14.14 104.114 33.6667H33.6667C15.0658 33.6667 0 48.7325 0 67.3333V336.667C0 355.268 15.0658 370.333 33.6667 370.333H269.333C287.934 370.333 303 355.268 303 336.667V67.3333C303 48.7325 287.934 33.6667 269.333 33.6667ZM151.5 33.6667C160.758 33.6667 168.333 41.1575 168.333 50.5C168.333 59.8425 160.758 67.3333 151.5 67.3333C142.242 67.3333 134.667 59.8425 134.667 50.5C134.667 41.1575 142.242 33.6667 151.5 33.6667ZM269.333 336.667H33.6667V67.3333H67.3333V117.833H235.667V67.3333H269.333V336.667Z" fill="#FD4D00" fill-opacity="0.07"/>
</svg>
