<svg width="19" height="19" viewBox="0 0 19 19" fill="none" xmlns="http://www.w3.org/2000/svg">
<path fill-rule="evenodd" clip-rule="evenodd" d="M7.20453 0.0127052C7.20223 0.0146157 6.97671 0.0210149 6.70338 0.0269326C6.43005 0.0328503 6.18195 0.0400106 6.15206 0.0428219C6.12216 0.0456332 5.98588 0.0526382 5.84922 0.058385C5.71255 0.0641319 5.57977 0.0714475 5.55414 0.0746471C5.52852 0.0778312 5.43417 0.0848361 5.34448 0.0901947C5.2548 0.0955533 5.16045 0.102543 5.13482 0.105727C5.1092 0.108911 5.03582 0.115714 4.97176 0.120824C4.44884 0.162559 3.79966 0.267074 3.32777 0.385459C2.22348 0.662536 1.48616 1.12168 1.01936 1.82295C0.466898 2.65292 0.173205 3.88021 0.0644001 5.81364C0.016334 6.66756 -0.0220257 9.43381 0.0145014 9.41122C0.0241302 9.40527 0.233183 9.39369 0.479058 9.38547C2.93507 9.30337 3.98419 9.2192 4.92517 9.02878C5.90923 8.82962 6.62601 8.52127 7.26247 8.02324C8.19859 7.29075 8.76691 6.28507 9.03997 4.87785C9.23017 3.8976 9.3058 2.91742 9.39177 0.318143L9.40221 0.00259386L8.30545 0.00591772C7.70224 0.00773497 7.20682 0.0107948 7.20453 0.0127052ZM9.60662 0.200348C9.61164 0.310548 9.62282 0.620879 9.63144 0.889972C9.72404 3.77939 9.89573 5.07732 10.3248 6.13205C10.8438 7.40788 11.8468 8.34282 13.1795 8.79317C14.2191 9.14446 15.5179 9.29175 18.3355 9.37787C18.4893 9.38258 18.7017 9.39058 18.8075 9.39567L19 9.40493L18.9906 8.0636C18.9855 7.32586 18.9781 6.68033 18.9741 6.62907C18.9701 6.57782 18.9624 6.39958 18.9568 6.233C18.9513 6.06642 18.9442 5.90217 18.941 5.868C18.9378 5.83383 18.9309 5.72549 18.9258 5.62725C18.9031 5.1984 18.8489 4.66018 18.7841 4.2216C18.5722 2.78634 18.1334 1.79375 17.4623 1.23137C16.927 0.782832 16.224 0.48224 15.2683 0.293277C15.018 0.24376 14.5685 0.175528 14.3443 0.15296C14.293 0.147803 14.2231 0.140425 14.189 0.136558C14.0572 0.121647 13.9827 0.114611 13.8628 0.105758C13.7945 0.10071 13.7106 0.093736 13.6765 0.0902413C13.6423 0.0867621 13.527 0.0793067 13.4202 0.0736686C13.3134 0.068046 13.2016 0.0612429 13.1717 0.0585559C13.1418 0.0558688 12.9776 0.0488018 12.8068 0.0428685C12.6359 0.0369197 12.4542 0.0294643 12.403 0.0262958C12.3517 0.0231273 11.6995 0.0159048 10.9536 0.0102667L9.59747 0L9.60662 0.200348ZM0.00718669 10.8339C0.0220336 12.6633 0.0583123 13.4735 0.166092 14.3835C0.373281 16.1328 0.845292 17.2435 1.64052 17.853C1.91144 18.0606 2.32916 18.288 2.67396 18.4156C3.38846 18.6799 4.30952 18.844 5.51532 18.9218C5.95243 18.95 6.01109 18.9529 6.33065 18.9624C6.50149 18.9675 6.69367 18.9744 6.75774 18.9778C6.8218 18.9812 7.44574 18.9887 8.14426 18.9946C9.23251 19.0037 9.41325 19.0021 9.4069 18.9834C9.40283 18.9714 9.39201 18.7239 9.38284 18.4334C9.30043 15.8191 9.18935 14.6412 8.93099 13.6418C8.77227 13.0278 8.55078 12.5116 8.24903 12.0523C7.58416 11.0404 6.62062 10.3879 5.29839 10.054C4.33937 9.81187 3.11339 9.69888 0.576697 9.61879C0.28201 9.60949 0.0310412 9.59852 0.0189742 9.59442C0.000167021 9.58804 -0.00151025 9.76385 0.00718669 10.8339ZM18.5374 9.61413C17.0982 9.66539 16.5235 9.69228 15.9361 9.73581C13.7636 9.89688 12.5819 10.2641 11.6122 11.0795C10.7927 11.7686 10.2641 12.7094 9.9979 13.9525C9.78722 14.9364 9.70109 15.9702 9.61583 18.5384C9.60796 18.7755 9.59654 18.9775 9.59045 18.9874C9.5821 19.0009 9.89026 19.0026 10.8436 18.9946C11.539 18.9888 12.1673 18.9812 12.2399 18.9778C12.3125 18.9744 12.5152 18.9672 12.6903 18.9619C12.8654 18.9565 13.0436 18.9493 13.0863 18.9459C13.129 18.9425 13.2513 18.9355 13.3581 18.9303C14.6761 18.8669 15.8413 18.6412 16.6027 18.302C17.6679 17.8273 18.2588 17.0547 18.6049 15.6843C18.7789 14.9952 18.8548 14.4225 18.9405 13.1525C18.9445 13.0927 18.952 12.918 18.9572 12.7642C18.9623 12.6105 18.9698 12.4392 18.9739 12.3837C18.978 12.3282 18.9856 11.6799 18.9907 10.9431L19 9.60346L18.8308 9.60658C18.7378 9.60831 18.6058 9.61171 18.5374 9.61413Z" fill="#333333"/>
</svg>
