<svg width="701" height="123" viewBox="0 0 701 123" fill="none" xmlns="http://www.w3.org/2000/svg">
<g clip-path="url(#clip0_44_11)">
<path d="M44.2 74.8H23.8V108.8H44.2V74.8Z" fill="black"/>
<path d="M44.2068 27.2211V51.0211L108.807 51.0211V27.2211L44.2068 27.2211Z" fill="black"/>
<path d="M108.8 6.8V108.8H6.8V6.8H108.8ZM115.6 0H0V115.6H115.6V0Z" fill="black"/>
<path d="M183.6 40.7V101.9H175.2V75.5H137.5V101.9H129.2V40.7H137.5V67.2H175.2V40.7H183.6Z" fill="black"/>
<path d="M237.1 47.6H225.3L197.2 108.8H206.3L212.2 96H250.1L256 108.8H265.1L237.1 47.6ZM216.1 87.6L231.2 54.6L246.4 87.6H216.1Z" fill="black"/>
<path d="M408.1 108.5H398.9L374.1 54.4L349.2 108.5H340.1L368.2 47.3H380L408.1 108.5Z" fill="black"/>
<path d="M476.1 100.2V108.5H421.7V47.3H472.7V55.6H430V73.8H469.3V82.1H430V100.2H476.1Z" fill="black"/>
<path d="M700.5 100.2V108.5H646.1V47.3H697.1V55.6H654.4V73.8H693.7V82.1H654.4V100.2H700.5Z" fill="black"/>
<path d="M552.4 101.7L530.6 47.3H516.8L494.8 101.7H489.7V122.1H498V110H549.4V122.1H557.7V101.7H552.4ZM523.8 52.5L543.5 101.7H503.9L523.8 52.5Z" fill="black"/>
<path d="M625.7 47.3V108.5H617.4V53.6L586.1 108.6L584.4 108.5H571.3V47.3H579.6V103.1L611.5 47.3H625.7Z" fill="black"/>
<path d="M333.3 91.8L333 92.5C330.8 97.4 327.3 101.4 322.6 104.3C317.4 107.6 311.3 109.2 304.6 109.2C295.3 109.2 287.4 106.2 281.4 100.2C275.3 94.3 272.2 86.7 272.2 77.6C272.2 68.8 275.3 61.3 281.3 55.3C287.3 49.3 295.2 46.2 304.6 46.2C311.7 46.2 317.7 47.8 322.5 50.8C326.8 53.6 330.2 57.2 332.7 61.5L333.1 62.3L328.5 64.8L327.1 65.6L325.8 66.3C321.5 58.9 313.6 54.3 304.8 54.3C291.5 54.3 280.7 64.8 280.7 77.7C280.7 90.6 291.5 101.1 304.8 101.1C314 101.1 322.4 95.9 326.4 88L327.5 88.6L329.1 89.4L333.3 91.8Z" fill="black"/>
<path d="M144.6 31.8H142L140.2 26.6H133.5L131.6 31.8H129.2L135.6 14.5H138.4L144.6 31.8ZM139.6 24.8L137 17.2L134.1 24.8H139.6Z" fill="black"/>
<path d="M156.3 15.1C157 15.4 157.5 15.7 158 16.1C158.5 16.5 158.8 17.1 159 17.7C159.2 18.3 159.3 19 159.3 19.7C159.3 20.5 159.2 21.1 159 21.7C158.8 22.3 158.5 22.8 158 23.3C157.5 23.8 157 24.1 156.3 24.3C155.6 24.5 154.8 24.7 153.9 24.7H149V31.8H146.7V14.8H153.9C154.8 14.8 155.6 14.9 156.3 15.1ZM156.2 22C156.7 21.5 157 20.7 157 19.8C157 18.8 156.7 18.1 156.2 17.6C155.7 17.1 154.8 16.8 153.6 16.8H149V22.8H153.7C154.8 22.8 155.7 22.5 156.2 22Z" fill="black"/>
<path d="M164.4 14.8L168.7 21.3L173 14.8H175.8L170.1 23.1L176.2 31.9H173.4L168.7 24.9L164 31.9H161.2L167.3 23.1L161.6 14.8H164.4Z" fill="black"/>
<path d="M180.7 28.6L189.4 14.8H192V31.9H189.7V17.9L181 31.8H178.4V14.8H180.7V28.6Z" fill="black"/>
<path d="M202.2 16.8V31.9H199.9V16.8H194.1V14.8H208V16.8H202.2Z" fill="black"/>
<path d="M212.4 16.8V22H221.8V24H212.4V29.8H222.7V31.8H210.1V14.8H222.6V16.8H212.4Z" fill="black"/>
<path d="M236.6 14.8H239.8L232.7 21.7L240 31.9H237L231 23.3L228.2 26V31.9H226V14.8H228.3V23.1L236.6 14.8Z" fill="black"/>
<path d="M248.5 16.8V31.9H246.2V16.8H240.4V14.8H254.3V16.8H248.5Z" fill="black"/>
<path d="M258.4 29.8C258.5 29.9 258.7 29.9 258.9 30L259.4 30.1C259.6 30.1 259.7 30.1 259.9 30.1C260.2 30.1 260.5 30.1 260.8 30C261 29.9 261.3 29.8 261.4 29.6C261.6 29.4 261.7 29.3 261.9 29.1C262 28.9 262.1 28.7 262.2 28.5L255.2 14.8H257.9L263.5 26.1L267.8 14.8H270.4L265 27.6C264.6 28.4 264.3 29.2 264 29.8C263.7 30.4 263.3 30.9 263 31.3C262.6 31.7 262.2 32 261.7 32.1C261.2 32.3 260.7 32.4 260 32.4C259.6 32.4 259.3 32.4 259 32.3C258.7 32.2 258.4 32.1 258.2 31.9V29.7C258.1 29.6 258.3 29.7 258.4 29.8Z" fill="black"/>
<path d="M281.8 15.1C282.5 15.4 283 15.7 283.5 16.1C284 16.5 284.3 17.1 284.5 17.7C284.7 18.3 284.8 19 284.8 19.7C284.8 20.5 284.7 21.1 284.5 21.7C284.3 22.3 284 22.8 283.5 23.3C283 23.8 282.5 24.1 281.8 24.3C281.1 24.5 280.3 24.7 279.4 24.7H274.5V31.8H272.2V14.8H279.4C280.3 14.8 281.2 14.9 281.8 15.1ZM281.8 22C282.3 21.5 282.6 20.7 282.6 19.8C282.6 18.8 282.3 18.1 281.8 17.6C281.3 17.1 280.4 16.8 279.2 16.8H274.5V22.8H279.2C280.4 22.8 281.3 22.5 281.8 22Z" fill="black"/>
<path d="M299.4 21.8V14.8H301.7V31.9H299.4V23.9H290.3V31.9H288V14.8H290.3V21.8H299.4Z" fill="black"/>
<path d="M320.8 25.5C320.7 26.2 320.4 26.9 320.1 27.6C319.8 28.3 319.4 28.9 319 29.5C318.5 30.1 318 30.6 317.4 31C316.8 31.4 316.1 31.8 315.3 32C314.5 32.2 313.7 32.4 312.7 32.4C311.8 32.4 310.9 32.3 310.1 32C309.3 31.8 308.6 31.4 308 31C307.4 30.6 306.9 30.1 306.4 29.5C305.9 28.9 305.5 28.3 305.3 27.6C305 26.9 304.8 26.2 304.6 25.5C304.5 24.8 304.4 24 304.4 23.3C304.4 22 304.6 20.8 305 19.7C305.4 18.6 305.9 17.7 306.6 16.9C307.3 16.1 308.2 15.5 309.2 15.1C310.2 14.6 311.4 14.4 312.7 14.4C314 14.4 315.2 14.6 316.2 15.1C317.2 15.5 318.1 16.1 318.8 16.9C319.5 17.7 320 18.6 320.4 19.7C320.8 20.8 321 22 321 23.3C321.1 24 321 24.8 320.8 25.5ZM318.4 20.5C318.1 19.6 317.7 18.9 317.2 18.3C316.7 17.7 316 17.2 315.3 16.9C314.5 16.5 313.7 16.4 312.7 16.4C311.7 16.4 310.9 16.6 310.1 16.9C309.4 17.2 308.7 17.7 308.2 18.3C307.7 18.9 307.3 19.7 307 20.5C306.7 21.4 306.6 22.3 306.6 23.3C306.6 24.3 306.7 25.3 307 26.1C307.3 27 307.6 27.7 308.1 28.3C308.6 28.9 309.2 29.4 310 29.7C310.8 30 311.6 30.2 312.7 30.2C313.8 30.2 314.6 30 315.4 29.7C316.2 29.3 316.8 28.9 317.3 28.3C317.8 27.7 318.2 26.9 318.4 26.1C318.7 25.3 318.8 24.3 318.8 23.3C318.8 22.3 318.6 21.3 318.4 20.5Z" fill="black"/>
<path d="M323 26.3V24.1H328.8V26.3H323Z" fill="black"/>
<path d="M333.5 26.2C333.8 27.1 334.1 27.8 334.6 28.4C335.1 29 335.7 29.5 336.4 29.8C337.1 30.1 337.9 30.3 338.7 30.3C339.4 30.3 340.1 30.2 340.7 29.9C341.3 29.6 341.8 29.3 342.2 28.9C342.6 28.4 343 28 343.2 27.4C343.4 26.9 343.6 26.3 343.7 25.7H345.9C345.9 26.2 345.8 26.7 345.6 27.2C345.4 27.7 345.2 28.2 344.9 28.7C344.6 29.2 344.3 29.6 343.9 30.1C343.5 30.5 343.1 30.9 342.5 31.2C342 31.5 341.4 31.8 340.8 31.9C340.2 32.1 339.5 32.2 338.7 32.2C338.2 32.2 337.6 32.2 337 32C336.4 31.9 335.8 31.7 335.2 31.5C334.6 31.3 334.1 30.9 333.5 30.5C333 30.1 332.5 29.5 332.1 28.9C331.7 28.3 331.4 27.5 331.1 26.6C330.8 25.7 330.7 24.7 330.7 23.5C330.7 22.4 330.8 21.3 331 20.4C331.2 19.5 331.5 18.7 331.9 18C332.3 17.3 332.7 16.8 333.3 16.3C333.8 15.8 334.3 15.4 334.9 15.1C335.5 14.8 336.1 14.6 336.7 14.5C337.3 14.4 338 14.3 338.6 14.3C339.4 14.3 340.1 14.4 340.7 14.5C341.3 14.7 341.9 14.9 342.4 15.1C342.9 15.4 343.3 15.7 343.7 16.1C344.1 16.5 344.4 16.8 344.7 17.2C345 17.6 345.2 18 345.3 18.5C345.4 18.9 345.5 19.3 345.6 19.7H343.4C343.3 19.2 343 18.7 342.8 18.2C342.5 17.8 342.2 17.4 341.8 17.1C341.4 16.8 340.9 16.6 340.4 16.4C339.9 16.3 339.3 16.2 338.8 16.2C337.9 16.2 337.1 16.4 336.4 16.7C335.7 17 335.1 17.5 334.6 18.1C334.1 18.7 333.7 19.4 333.4 20.3C333.1 21.2 333 22.1 333 23.2C333.1 24.3 333.3 25.3 333.5 26.2Z" fill="black"/>
<path d="M355.5 16.8V31.9H353.2V16.8H347.4V14.8H361.3V16.8H355.5Z" fill="black"/>
<path d="M373 15.1C373.7 15.4 374.2 15.7 374.7 16.1C375.2 16.5 375.5 17.1 375.7 17.7C375.9 18.3 376 19 376 19.7C376 20.5 375.9 21.1 375.7 21.7C375.5 22.3 375.2 22.8 374.7 23.3C374.2 23.8 373.7 24.1 373 24.3C372.3 24.5 371.5 24.7 370.6 24.7H365.7V31.8H363.4V14.8H370.6C371.5 14.8 372.3 14.9 373 15.1ZM372.9 22C373.4 21.5 373.7 20.7 373.7 19.8C373.7 18.8 373.4 18.1 372.9 17.6C372.4 17.1 371.5 16.8 370.3 16.8H365.6V22.8H370.3C371.5 22.8 372.4 22.5 372.9 22Z" fill="black"/>
<path d="M394.8 25.5C394.7 26.2 394.4 26.9 394.1 27.6C393.8 28.3 393.4 28.9 393 29.5C392.5 30.1 392 30.6 391.4 31C390.8 31.4 390.1 31.8 389.3 32C388.5 32.2 387.7 32.4 386.7 32.4C385.8 32.4 384.9 32.3 384.1 32C383.3 31.8 382.6 31.4 382 31C381.4 30.6 380.9 30.1 380.4 29.5C379.9 28.9 379.5 28.3 379.3 27.6C379 26.9 378.8 26.2 378.6 25.5C378.5 24.8 378.4 24 378.4 23.3C378.4 22 378.6 20.8 379 19.7C379.4 18.6 379.9 17.7 380.6 16.9C381.3 16.1 382.2 15.5 383.2 15.1C384.2 14.6 385.4 14.4 386.7 14.4C388 14.4 389.2 14.6 390.2 15.1C391.2 15.5 392.1 16.1 392.8 16.9C393.5 17.7 394 18.6 394.4 19.7C394.8 20.8 395 22 395 23.3C395 24 395 24.8 394.8 25.5ZM392.4 20.5C392.1 19.6 391.7 18.9 391.2 18.3C390.7 17.7 390 17.2 389.3 16.9C388.5 16.5 387.7 16.4 386.7 16.4C385.7 16.4 384.9 16.6 384.1 16.9C383.4 17.2 382.7 17.7 382.2 18.3C381.7 18.9 381.3 19.7 381 20.5C380.7 21.4 380.6 22.3 380.6 23.3C380.6 24.3 380.7 25.3 381 26.1C381.3 27 381.6 27.7 382.1 28.3C382.6 28.9 383.2 29.4 384 29.7C384.8 30 385.6 30.2 386.7 30.2C387.8 30.2 388.6 30 389.4 29.7C390.2 29.3 390.8 28.9 391.3 28.3C391.8 27.7 392.2 26.9 392.4 26.1C392.7 25.3 392.8 24.3 392.8 23.3C392.8 22.3 392.6 21.3 392.4 20.5Z" fill="black"/>
<path d="M400.1 28.6L408.8 14.8H411.4V31.9H409.1V17.9L400.4 31.8H397.8V14.8H400.1V28.6Z" fill="black"/>
<path d="M421.6 16.8V31.9H419.3V16.8H413.5V14.8H427.4V16.8H421.6Z" fill="black"/>
<path d="M431.7 16.8V22H441.1V24H431.7V29.8H442V31.8H429.4V14.8H441.9V16.8H431.7Z" fill="black"/>
<path d="M449.7 20.7C449.7 22 449.6 23.2 449.5 24.3C449.4 25.4 449.2 26.5 449 27.4C448.8 28.4 448.5 29.2 448.2 29.9C447.8 30.6 447.4 31.2 446.9 31.5C446.4 31.9 445.7 32.1 445 32.1C444.8 32.1 444.6 32.1 444.5 32C444.4 32 444.2 31.9 444 31.9V29.8C444.1 29.8 444.2 29.9 444.3 29.9C444.4 29.9 444.6 29.9 444.8 29.9C445.2 29.9 445.5 29.8 445.7 29.5C445.9 29.3 446.2 28.9 446.4 28.4C446.6 27.9 446.7 27.4 446.9 26.7C447 26.1 447.1 25.4 447.2 24.6C447.3 23.8 447.3 23.1 447.4 22.2C447.4 21.3 447.5 20.5 447.5 19.6V17C447.5 16.1 447.5 15.3 447.5 14.5H458.1V31.6H455.8V16.8H449.7C449.7 18.1 449.7 19.4 449.7 20.7Z" fill="black"/>
<path d="M468.5 21.8C469.5 21.8 470.4 21.9 471.2 22.2C472 22.4 472.6 22.8 473.1 23.2C473.6 23.6 474 24.2 474.2 24.8C474.4 25.4 474.6 26.1 474.6 26.9C474.6 27.7 474.5 28.4 474.2 28.9C474 29.5 473.6 30.1 473.2 30.5C472.8 30.9 472.2 31.3 471.5 31.5C470.8 31.7 470 31.9 469.2 31.9H461.8V14.8H464.1V21.8H468.5ZM470 29.7C470.4 29.6 470.7 29.4 471 29.2C471.3 29 471.5 28.7 471.7 28.3C471.9 27.9 471.9 27.4 471.9 26.9C471.9 26.3 471.8 25.9 471.7 25.5C471.5 25.1 471.2 24.8 470.9 24.5C470.6 24.3 470.2 24.1 469.7 24C469.2 23.9 468.7 23.9 468.1 23.9H463.8V29.9H468.6C469.2 29.8 469.6 29.8 470 29.7Z" fill="black"/>
<path d="M488.5 21.8V14.8H490.8V31.9H488.5V23.9H479.4V31.9H477.1V14.8H479.4V21.8H488.5Z" fill="black"/>
<path d="M508.3 31.8H505.8L504 26.6H497.3L495.4 31.8H493L499.4 14.5H502.2L508.3 31.8ZM503.3 24.8L500.7 17.2L497.8 24.8H503.3Z" fill="black"/>
<path d="M517.3 24.6H516.1C515.8 24.6 515.5 24.6 515.3 24.7C515.1 24.7 514.9 24.8 514.7 24.8C514.6 24.9 514.4 24.9 514.2 25C514 25.1 513.9 25.2 513.7 25.4C513.6 25.5 513.5 25.7 513.4 25.9C513.3 26.1 513.2 26.4 513.2 26.7C513.1 27 513.1 27.4 513.1 27.9L513 29.8C513 30 513 30.2 513 30.4C513 30.6 512.9 30.8 512.9 30.9L512.8 31.4C512.8 31.5 512.7 31.7 512.6 31.9H510C510.1 31.8 510.2 31.7 510.3 31.6C510.4 31.5 510.5 31.3 510.5 31.1C510.6 30.9 510.6 30.7 510.7 30.5C510.7 30.3 510.8 30 510.8 29.6L511 27.3L511.1 26.2C511.2 25.8 511.3 25.5 511.4 25.2C511.5 24.9 511.8 24.6 512.1 24.4C512.4 24.2 512.8 23.9 513.4 23.8L512.5 23.4C512.1 23.2 511.8 23 511.5 22.7C511.2 22.4 510.9 22 510.7 21.5C510.5 21 510.4 20.4 510.4 19.6C510.4 19.1 510.5 18.6 510.6 18.1C510.7 17.6 510.9 17.3 511.1 16.9C511.3 16.6 511.5 16.3 511.8 16C512.1 15.8 512.3 15.5 512.6 15.4C512.9 15.2 513.2 15.1 513.6 15C514 14.9 514.4 14.8 514.7 14.8C515.1 14.8 515.5 14.7 515.8 14.7C516.2 14.7 516.5 14.7 516.8 14.7H523.9V31.8H521.6V24.5H517.3V24.6ZM515.1 16.8C514.9 16.8 514.7 16.9 514.5 16.9C514.3 16.9 514.1 17 514 17.1C513.8 17.2 513.6 17.4 513.4 17.6C513.2 17.8 513.1 18 513 18.2C512.9 18.4 512.8 18.7 512.8 18.9C512.8 19.2 512.7 19.4 512.7 19.6C512.7 19.8 512.7 19.9 512.7 20.1C512.7 20.3 512.8 20.5 512.9 20.7C513 20.9 513.1 21.1 513.2 21.3C513.3 21.5 513.5 21.7 513.8 21.9C514 22 514.2 22.2 514.4 22.2C514.6 22.3 514.8 22.3 515 22.4C515.2 22.4 515.5 22.4 515.8 22.4H516.7H521.6V16.5H515.7C515.5 16.8 515.3 16.8 515.1 16.8Z" fill="black"/>
<path d="M542.1 29.1L546.9 14.7H550.2V31.8H548.1V17.5L543.3 31.9H541L536.2 17.5V31.9H534V14.8H537.3L542.1 29.1Z" fill="black"/>
<path d="M567.8 31.8H565.3L563.5 26.6H556.8L554.9 31.8H552.5L558.9 14.5H561.7L567.8 31.8ZM562.8 24.8L560.2 17.2L557.3 24.8H562.8Z" fill="black"/>
<path d="M571.8 26.2C572.1 27.1 572.4 27.8 572.9 28.4C573.4 29 574 29.5 574.7 29.8C575.4 30.1 576.2 30.3 577 30.3C577.7 30.3 578.4 30.2 579 29.9C579.6 29.6 580.1 29.3 580.5 28.9C580.9 28.4 581.3 28 581.5 27.4C581.7 26.9 581.9 26.3 582 25.7H584.2C584.2 26.2 584.1 26.7 583.9 27.2C583.7 27.7 583.5 28.2 583.2 28.7C582.9 29.2 582.6 29.6 582.2 30.1C581.8 30.5 581.4 30.9 580.8 31.2C580.3 31.5 579.7 31.8 579.1 31.9C578.5 32.1 577.8 32.2 577 32.2C576.5 32.2 575.9 32.2 575.3 32C574.7 31.9 574.1 31.7 573.5 31.5C572.9 31.3 572.4 30.9 571.8 30.5C571.3 30.1 570.8 29.5 570.4 28.9C570 28.3 569.7 27.5 569.4 26.6C569.1 25.7 569 24.7 569 23.5C569 22.4 569.1 21.3 569.3 20.4C569.5 19.5 569.8 18.7 570.2 18C570.6 17.3 571 16.8 571.6 16.3C572.1 15.8 572.6 15.4 573.2 15.1C573.8 14.8 574.4 14.6 575 14.5C575.6 14.4 576.3 14.3 576.9 14.3C577.7 14.3 578.4 14.4 579 14.5C579.6 14.7 580.2 14.9 580.7 15.1C581.2 15.4 581.6 15.7 582 16.1C582.4 16.5 582.7 16.8 583 17.2C583.3 17.6 583.5 18 583.6 18.5C583.7 18.9 583.8 19.3 583.9 19.7H581.7C581.6 19.2 581.3 18.7 581.1 18.2C580.8 17.8 580.5 17.4 580.1 17.1C579.7 16.8 579.2 16.6 578.7 16.4C578.2 16.3 577.6 16.2 577.1 16.2C576.2 16.2 575.4 16.4 574.7 16.7C574 17 573.4 17.5 572.9 18.1C572.4 18.7 572 19.4 571.7 20.3C571.4 21.2 571.3 22.1 571.3 23.2C571.4 24.3 571.5 25.3 571.8 26.2Z" fill="black"/>
<path d="M593.8 16.8V31.9H591.5V16.8H585.7V14.8H599.6V16.8H593.8Z" fill="black"/>
<path d="M603.9 16.8V22H613.3V24H603.9V29.8H614.2V31.8H601.6V14.8H614.1V16.8H603.9Z" fill="black"/>
<path d="M627.1 15.1C627.8 15.4 628.3 15.7 628.8 16.1C629.3 16.5 629.6 17.1 629.8 17.7C630 18.3 630.1 19 630.1 19.7C630.1 20.5 630 21.1 629.8 21.7C629.6 22.3 629.3 22.8 628.8 23.3C628.3 23.8 627.8 24.1 627.1 24.3C626.4 24.5 625.6 24.7 624.6 24.7H619.7V31.8H617.4V14.8H624.6C625.6 14.8 626.4 14.9 627.1 15.1ZM627 22C627.5 21.5 627.8 20.7 627.8 19.8C627.8 18.8 627.5 18.1 627 17.6C626.5 17.1 625.6 16.8 624.4 16.8H619.7V22.8H624.4C625.6 22.8 626.5 22.5 627 22Z" fill="black"/>
<path d="M635.2 26.2C635.5 27.1 635.8 27.8 636.3 28.4C636.8 29 637.4 29.5 638.1 29.8C638.8 30.1 639.6 30.3 640.4 30.3C641.1 30.3 641.8 30.2 642.4 29.9C643 29.6 643.5 29.3 643.9 28.9C644.3 28.4 644.7 28 644.9 27.4C645.1 26.9 645.3 26.3 645.4 25.7H647.6C647.6 26.2 647.5 26.7 647.3 27.2C647.1 27.7 646.9 28.2 646.6 28.7C646.3 29.2 646 29.6 645.6 30.1C645.2 30.5 644.8 30.9 644.2 31.2C643.7 31.5 643.1 31.8 642.5 31.9C641.9 32.1 641.2 32.2 640.4 32.2C639.9 32.2 639.3 32.2 638.7 32C638.1 31.9 637.5 31.7 636.9 31.5C636.3 31.3 635.8 30.9 635.2 30.5C634.7 30.1 634.2 29.5 633.8 28.9C633.4 28.3 633.1 27.5 632.8 26.6C632.5 25.7 632.4 24.7 632.4 23.5C632.4 22.4 632.5 21.3 632.7 20.4C632.9 19.5 633.2 18.7 633.6 18C634 17.3 634.4 16.8 635 16.3C635.5 15.8 636 15.4 636.6 15.1C637.2 14.8 637.8 14.6 638.4 14.5C639 14.4 639.7 14.3 640.3 14.3C641.1 14.3 641.8 14.4 642.4 14.5C643 14.7 643.6 14.9 644.1 15.1C644.6 15.4 645 15.7 645.4 16.1C645.8 16.5 646.1 16.8 646.4 17.2C646.7 17.6 646.9 18 647 18.5C647.1 18.9 647.2 19.3 647.3 19.7H645.1C645 19.2 644.7 18.7 644.5 18.2C644.2 17.8 643.9 17.4 643.5 17.1C643.1 16.8 642.6 16.6 642.1 16.4C641.6 16.3 641 16.2 640.5 16.2C639.6 16.2 638.8 16.4 638.1 16.7C637.4 17 636.8 17.5 636.3 18.1C635.8 18.7 635.4 19.4 635.1 20.3C634.8 21.2 634.7 22.1 634.7 23.2C634.8 24.3 634.9 25.3 635.2 26.2Z" fill="black"/>
<path d="M661.1 14.8H664.3L657.2 21.7L664.5 31.9H661.6L655.6 23.3L652.8 26V31.9H650.5V14.8H652.8V23.1L661.1 14.8Z" fill="black"/>
<path d="M680.4 31.8H677.9L676.1 26.6H669.4L667.5 31.8H665L671.4 14.5H674.2L680.4 31.8ZM675.4 24.8L672.8 17.2L669.9 24.8H675.4Z" fill="black"/>
<path d="M689.4 24.6H688.2C687.9 24.6 687.6 24.6 687.4 24.7C687.2 24.7 687 24.8 686.8 24.8C686.7 24.9 686.5 24.9 686.3 25C686.1 25.1 686 25.2 685.8 25.4C685.7 25.5 685.6 25.7 685.5 25.9C685.4 26.1 685.3 26.4 685.3 26.7C685.2 27 685.2 27.4 685.2 27.9L685.1 29.8C685.1 30 685.1 30.2 685.1 30.4C685.1 30.6 685 30.8 685 30.9L684.9 31.4C684.9 31.5 684.8 31.7 684.7 31.9H682C682.1 31.8 682.2 31.7 682.3 31.6C682.4 31.5 682.5 31.3 682.5 31.1C682.6 30.9 682.6 30.7 682.7 30.5C682.7 30.3 682.8 30 682.8 29.6L683 27.3L683.1 26.2C683.2 25.8 683.3 25.5 683.4 25.2C683.5 24.9 683.8 24.6 684.1 24.4C684.4 24.2 684.8 23.9 685.4 23.8L684.5 23.4C684.1 23.2 683.8 23 683.5 22.7C683.2 22.4 682.9 22 682.7 21.5C682.5 21 682.4 20.4 682.4 19.6C682.4 19.1 682.5 18.6 682.6 18.1C682.7 17.6 682.9 17.3 683.1 16.9C683.3 16.6 683.5 16.3 683.8 16C684.1 15.8 684.3 15.5 684.6 15.4C684.9 15.2 685.2 15.1 685.6 15C686 14.9 686.4 14.8 686.7 14.8C687.1 14.8 687.5 14.7 687.8 14.7C688.2 14.7 688.5 14.7 688.8 14.7H695.9V31.8H693.6V24.5H689.4V24.6ZM687.2 16.8C687 16.8 686.8 16.9 686.6 16.9C686.4 16.9 686.2 17 686.1 17.1C685.9 17.2 685.7 17.4 685.5 17.6C685.3 17.8 685.2 18 685.1 18.2C685 18.4 684.9 18.7 684.9 18.9C684.9 19.2 684.8 19.4 684.8 19.6C684.8 19.8 684.8 19.9 684.8 20.1C684.8 20.3 684.9 20.5 685 20.7C685.1 20.9 685.2 21.1 685.3 21.3C685.4 21.5 685.6 21.7 685.9 21.9C686.1 22 686.3 22.2 686.5 22.2C686.7 22.3 686.9 22.3 687.1 22.4C687.3 22.4 687.6 22.4 687.9 22.4H688.8H693.7V16.5H687.9C687.6 16.8 687.4 16.8 687.2 16.8Z" fill="black"/>
</g>
<defs>
<clipPath id="clip0_44_11">
<rect width="700.5" height="122.1" fill="white"/>
</clipPath>
</defs>
</svg>
