<svg width="47" height="40" viewBox="0 0 47 40" fill="none" xmlns="http://www.w3.org/2000/svg">
<path d="M9.8877 19.7266C8.4554 19.7266 7.12891 19.4906 5.9082 19.0186C4.70378 18.5465 3.66211 17.8874 2.7832 17.041C1.9043 16.1784 1.2207 15.1449 0.732422 13.9404C0.244141 12.7197 0 11.3607 0 9.86328C0 8.38216 0.244141 7.03125 0.732422 5.81055C1.2207 4.58984 1.9043 3.55632 2.7832 2.70996C3.66211 1.84733 4.70378 1.18001 5.9082 0.708008C7.12891 0.236003 8.4554 0 9.8877 0C11.32 0 12.6383 0.236003 13.8428 0.708008C15.0635 1.18001 16.1133 1.84733 16.9922 2.70996C17.8711 3.55632 18.5547 4.58984 19.043 5.81055C19.5312 7.03125 19.7754 8.38216 19.7754 9.86328C19.7754 11.3607 19.5312 12.7197 19.043 13.9404C18.5547 15.1449 17.8711 16.1784 16.9922 17.041C16.1133 17.8874 15.0635 18.5465 13.8428 19.0186C12.6383 19.4906 11.32 19.7266 9.8877 19.7266ZM35.083 0.463867H42.5781L11.9385 38.8916H4.44336L35.083 0.463867ZM9.8877 14.7461C10.5062 14.7461 11.084 14.6322 11.6211 14.4043C12.1745 14.1602 12.6546 13.8265 13.0615 13.4033C13.4684 12.9639 13.7858 12.443 14.0137 11.8408C14.2578 11.2386 14.3799 10.5794 14.3799 9.86328C14.3799 9.14714 14.2578 8.48796 14.0137 7.88574C13.7858 7.28353 13.4684 6.77083 13.0615 6.34766C12.6546 5.9082 12.1745 5.57454 11.6211 5.34668C11.084 5.10254 10.5062 4.98047 9.8877 4.98047C9.26921 4.98047 8.68327 5.10254 8.12988 5.34668C7.59277 5.57454 7.12077 5.9082 6.71387 6.34766C6.30697 6.77083 5.98145 7.28353 5.7373 7.88574C5.50944 8.48796 5.39551 9.14714 5.39551 9.86328C5.39551 10.5794 5.50944 11.2386 5.7373 11.8408C5.98145 12.443 6.30697 12.9639 6.71387 13.4033C7.12077 13.8265 7.59277 14.1602 8.12988 14.4043C8.68327 14.6322 9.26921 14.7461 9.8877 14.7461ZM27.002 29.541C27.002 28.0599 27.2461 26.709 27.7344 25.4883C28.2227 24.2676 28.9062 23.234 29.7852 22.3877C30.6641 21.5251 31.7057 20.8577 32.9102 20.3857C34.1309 19.9137 35.4574 19.6777 36.8896 19.6777C38.3219 19.6777 39.6403 19.9137 40.8447 20.3857C42.0654 20.8577 43.1152 21.5251 43.9941 22.3877C44.873 23.234 45.5566 24.2676 46.0449 25.4883C46.5332 26.709 46.7773 28.0599 46.7773 29.541C46.7773 31.0384 46.5332 32.3975 46.0449 33.6182C45.5566 34.8226 44.873 35.8561 43.9941 36.7188C43.1152 37.5651 42.0654 38.2243 40.8447 38.6963C39.6403 39.1683 38.3219 39.4043 36.8896 39.4043C35.4574 39.4043 34.1309 39.1683 32.9102 38.6963C31.7057 38.2243 30.6641 37.5651 29.7852 36.7188C28.9062 35.8561 28.2227 34.8226 27.7344 33.6182C27.2461 32.3975 27.002 31.0384 27.002 29.541ZM32.3975 29.541C32.3975 30.2572 32.5114 30.9163 32.7393 31.5186C32.9834 32.1208 33.3089 32.6416 33.7158 33.0811C34.1227 33.5042 34.5947 33.8379 35.1318 34.082C35.6852 34.3099 36.2712 34.4238 36.8896 34.4238C37.5081 34.4238 38.0859 34.3099 38.623 34.082C39.1764 33.8379 39.6566 33.5042 40.0635 33.0811C40.4704 32.6416 40.7878 32.1208 41.0156 31.5186C41.2598 30.9163 41.3818 30.2572 41.3818 29.541C41.3818 28.8249 41.2598 28.1657 41.0156 27.5635C40.7878 26.9613 40.4704 26.4486 40.0635 26.0254C39.6566 25.5859 39.1764 25.2523 38.623 25.0244C38.0859 24.7803 37.5081 24.6582 36.8896 24.6582C36.2712 24.6582 35.6852 24.7803 35.1318 25.0244C34.5947 25.2523 34.1227 25.5859 33.7158 26.0254C33.3089 26.4486 32.9834 26.9613 32.7393 27.5635C32.5114 28.1657 32.3975 28.8249 32.3975 29.541Z" fill="#FD4D00"/>
</svg>
