<svg width="306" height="299" viewBox="0 0 306 299" fill="none" xmlns="http://www.w3.org/2000/svg">
<path d="M85 0V35.0771H221V0H255V35.0771H272C290.7 35.0772 306 50.8619 306 70.1543V299H0V70.1543C0 50.8619 15.13 35.0771 34 35.0771H51V0H85ZM153 226.247C119 226.247 51 245.539 51 280.616V298.154H255V280.616C255 245.539 187 226.247 153 226.247ZM153 87.6924C124.78 87.6924 102 111.195 102 140.309C102 169.422 124.78 192.924 153 192.924C181.22 192.924 204 169.422 204 140.309C204 111.195 181.22 87.6924 153 87.6924Z" fill="#FD4D00" fill-opacity="0.06"/>
</svg>
