<svg width="458" height="463" viewBox="0 0 458 463" fill="none" xmlns="http://www.w3.org/2000/svg">
<path d="M76.3333 154.333H133.583V77.1662H400.75C421.837 77.1662 438.917 94.4322 438.917 115.749V327.958H400.75C400.75 359.886 375.083 385.833 343.5 385.833C311.917 385.833 286.25 359.886 286.25 327.958H171.75C171.75 359.886 146.083 385.833 114.5 385.833C82.917 385.833 57.2499 359.886 57.2499 327.958H19.0833V231.499L76.3333 154.333ZM343.5 356.895C359.339 356.895 372.125 343.97 372.125 327.958C372.125 311.946 359.339 299.02 343.5 299.02C327.661 299.02 314.875 311.946 314.875 327.958C314.875 343.97 327.661 356.895 343.5 356.895ZM85.8749 183.27L48.3762 231.499H133.583V183.27H85.8749ZM114.5 356.895C130.339 356.895 143.125 343.97 143.125 327.958C143.125 311.946 130.339 299.02 114.5 299.02C98.6608 299.02 85.8749 311.946 85.8749 327.958C85.8749 343.97 98.6608 356.895 114.5 356.895Z" fill="#FD4D00" fill-opacity="0.06"/>
</svg>
